{
  "accessors": [
    {
      "bufferView": 2,
      "componentType": 5126,
      "count": 14715,
      "max": [
        52.29436111450195,
        41.211204528808594,
        69.01852416992188
      ],
      "min": [
        -59.07512283325195,
        -38.08893585205078,
        3.1546895503997803
      ],
      "type": "VEC3"
    },
    {
      "bufferView": 2,
      "byteOffset": 176580,
      "componentType": 5126,
      "count": 14715,
      "max": [
        0.9981761574745178,
        0.9998055696487427,
        0.9998578429222107
      ],
      "min": [
        -0.9886168837547302,
        -0.9999260306358337,
        -0.9999688267707825
      ],
      "type": "VEC3"
    },
    {
      "bufferView": 3,
      "componentType": 5126,
      "count": 14715,
      "max": [
        0.9187948703765869,
        0.9986461997032166,
        0.9999958872795105,
        1.0
      ],
      "min": [
        -0.8830373287200928,
        -0.8939523100852966,
        -0.9993919134140015,
        -1.0
      ],
      "type": "VEC4"
    },
    {
      "bufferView": 1,
      "componentType": 5126,
      "count": 14715,
      "max": [
        0.9892929196357727,
        0.999500036239624
      ],
      "min": [
        0.0005000000237487257,
        0.0005000000237487257
      ],
      "type": "VEC2"
    },
    {
      "bufferView": 0,
      "componentType": 5125,
      "count": 84570,
      "type": "SCALAR"
    }
  ],
  "asset": {
    "extras": {
      "author": "reaction105 (https://sketchfab.com/reaction105)",
      "license": "SKETCHFAB Standard (https://sketchfab.com/licenses)",
      "source": "https://sketchfab.com/3d-models/sioux-quartzite-boulder-esu-kansas-e415ff3ab4c745ee8a6d056159e6740e",
      "title": "Sioux Quartzite Boulder (ESU, Kansas)"
    },
    "generator": "Sketchfab-15.53.0",
    "version": "2.0"
  },
  "bufferViews": [
    {
      "buffer": 0,
      "byteLength": 338280,
      "name": "floatBufferViews",
      "target": 34963
    },
    {
      "buffer": 0,
      "byteLength": 117720,
      "byteOffset": 338280,
      "byteStride": 8,
      "name": "floatBufferViews",
      "target": 34962
    },
    {
      "buffer": 0,
      "byteLength": 353160,
      "byteOffset": 456000,
      "byteStride": 12,
      "name": "floatBufferViews",
      "target": 34962
    },
    {
      "buffer": 0,
      "byteLength": 235440,
      "byteOffset": 809160,
      "byteStride": 16,
      "name": "floatBufferViews",
      "target": 34962
    }
  ],
  "buffers": [
    {
      "byteLength": 1044600,
      "uri": "scene.bin"
    }
  ],
  "extensionsUsed": [
    "KHR_materials_specular"
  ],
  "images": [
    {
      "uri": "./textures/01_-_Default_baseColor.jpeg"
    },
    {
      "uri": "./textures/01_-_Default_normal.png"
    }
  ],
  "materials": [
    {
      "doubleSided": true,
      "extensions": {
        "KHR_materials_specular": {
          "specularColorFactor": [
            1.0,
            1.0,
            1.0
          ],
          "specularFactor": 0.18102596069690272
        }
      },
      "name": "01_-_Default",
      "normalTexture": {
        "index": 1
      },
      "pbrMetallicRoughness": {
        "baseColorTexture": {
          "index": 0
        },
        "metallicFactor": 0.0,
        "roughnessFactor": 0.9743919101859372
      }
    }
  ],
  "meshes": [
    {
      "name": "LoRes_Retopo_01 - Default_0",
      "primitives": [
        {
          "attributes": {
            "NORMAL": 1,
            "POSITION": 0,
            "TANGENT": 2,
            "TEXCOORD_0": 3
          },
          "indices": 4,
          "material": 0,
          "mode": 4
        }
      ]
    }
  ],
  "nodes": [
    {
      "children": [
        1
      ],
      "matrix": [
        -0.997844934463501,
        1.7538208594766149e-16,
        -0.0656166523694992,
        0.0,
        -0.0656166523694992,
        -2.2156608424939183e-16,
        0.997844934463501,
        0.0,
        1.604656934714479e-16,
        1.0,
        2.325965683234691e-16,
        0.0,
        0.0,
        0.0,
        0.0,
        1.0
      ],
      "name": "Sketchfab_model"
    },
    {
      "children": [
        2
      ],
      "matrix": [
        0.009999999776482582,
        0.0,
        0.0,
        0.0,
        0.0,
        0.0,
        0.009999999776482582,
        0.0,
        0.0,
        -0.009999999776482582,
        0.0,
        0.0,
        0.0,
        0.0,
        0.0,
        1.0
      ],
      "name": "2fb30eab133e426691155e43f8ce18e4.fbx"
    },
    {
      "children": [
        3
      ],
      "name": "RootNode"
    },
    {
      "children": [
        4
      ],
      "matrix": [
        0.9961947149329557,
        0.0,
        0.08715555025153081,
        0.0,
        0.08715555025153081,
        0.0,
        -0.9961947149329557,
        0.0,
        0.0,
        1.0,
        0.0,
        0.0,
        0.0,
        32.44733810424805,
        0.0,
        1.0
      ],
      "name": "LoRes_Retopo"
    },
    {
      "children": [
        5
      ],
      "matrix": [
        1.0,
        0.0,
        -0.0,
        0.0,
        0.0,
        1.0,
        0.0,
        0.0,
        0.0,
        0.0,
        1.0,
        0.0,
        1.6418962478637695,
        -4.9569196701049805,
        -36.086605072021484,
        1.0
      ],
      "name": "Object_4"
    },
    {
      "mesh": 0,
      "name": "LoRes_Retopo_01 - Default_0"
    }
  ],
  "samplers": [
    {
      "magFilter": 9729,
      "minFilter": 9987,
      "wrapS": 10497,
      "wrapT": 10497
    }
  ],
  "scene": 0,
  "scenes": [
    {
      "name": "Sketchfab_Scene",
      "nodes": [
        0
      ]
    }
  ],
  "textures": [
    {
      "sampler": 0,
      "source": 0
    },
    {
      "sampler": 0,
      "source": 1
    }
  ]
}
